<svg width="271" height="171" xmlns="http://www.w3.org/2000/svg"><g fill="none" fill-rule="evenodd" opacity=".2"><path d="M-1-46h290v231H-1z"/><path fill="#FFF" d="M26.513 170.498H270.41V.431H26.513z"/><path fill="#141C3A" d="M137.651 109.278h109.202V25.59H137.65z"/><path fill="#FFF" d="M89.88 89.166h84.606v-7.82H89.88zm0-15.664h84.606v-7.82H89.88zm0-15.663h84.606v-7.82H89.88z"/><path fill="#141C3A" d="M58.8 142.589h73.666v-7.82H58.8zm0 15.663h73.666v-7.82H58.8zM44.94 12.502a5.178 5.178 0 1 1-10.357.001 5.178 5.178 0 0 1 10.357 0m15.773-.001a5.178 5.178 0 1 1-10.357.001 5.178 5.178 0 0 1 10.357 0m15.772-.001a5.178 5.178 0 1 1-10.356.001 5.178 5.178 0 0 1 10.356 0m-41.901 90.88C15.696 103.383.385 88.071.385 69.184c0-18.886 15.31-34.199 34.2-34.199 18.886 0 34.198 15.313 34.198 34.2 0 18.886-15.312 34.198-34.199 34.198"/></g></svg>