<svg xmlns="http://www.w3.org/2000/svg" width="157" height="44" viewBox="0 0 157 44">
    <g fill="#B92B27" fill-rule="evenodd">
        <path d="M144.47 33.352c-1.443 2.777-4.405 4.648-8.55 4.648-4.811 0-7.92-2.557-7.92-7.056 0-9.054 12.602-6.648 16.304-12.647v-.649c0-4.61-1.815-5.332-3.813-5.332-5.607 0-3.054 6.034-8.217 6.034-2.48 0-3.443-1.497-3.443-3.183 0-3.407 4.072-6.167 11.717-6.167 7.235 0 11.677 2 11.677 9.205v11.5c0 1.776.649 2.74 2.203 2.74.665 0 1.22-.185 1.646-.48L157 34.22c-.76 1.168-2.777 3.223-6.608 3.223-3.33 0-5.422-1.555-5.7-4.092h-.221zm-5.108.018c3.499 0 4.942-3.314 4.942-6.646v-4.446c-2.553 2.647-8.495 2.74-8.495 7.462 0 2.315 1.37 3.63 3.553 3.63zM104 37v-3.466h1.163c2.881 0 3.158-.824 3.158-3.3V15.162c0-1.485-.775-2.145-2.548-2.145h-1.55V9.55h10.947l.554 5.666h.223c1.218-4.072 4.485-6.217 7.55-6.217 2.529 0 4.503 1.43 4.503 4.328 0 2.017-.976 4.163-3.709 4.163-2.456 0-2.935-1.65-4.967-1.65-1.808 0-3.213 1.706-3.213 4.216v10.178c0 2.475.61 3.3 3.435 3.3h1.606V37H104M88.437 38C80.845 38 74 32.11 74 23.334 74 14.723 80.68 9 88.436 9 96.522 9 103 14.833 103 23.334 103 32.11 96.522 38 88.437 38zm0-3.5c4.198 0 5.793-3.704 5.876-11.166.082-7.299-1.678-10.831-5.876-10.831-3.667 0-5.968 3.534-5.968 10.831 0 7.463 2.262 11.167 5.968 11.167zM45 28.649V15.61c0-1.485-.54-2.145-2.216-2.145H41V10h11.657v18.484c0 3.116 1.657 4.49 4.181 4.49 2.071 0 4.144-.932 5.26-3.06V15.61c0-1.486-.54-2.145-2.215-2.145H57.99V10h11.767v19.362c0 1.929.702 2.807 2.864 2.807H73v3.576L62.478 37.45v-3.685h-.217c-2.036 2.529-4.9 4.235-8.99 4.235-4.596 0-8.272-2.364-8.272-9.351M24.134 37.883a19.111 19.111 0 0 1-4.969.672C9.482 38.555 0 30.723 0 19.333 0 7.833 9.482 0 19.165 0c9.847 0 19.237 7.777 19.237 19.333 0 6.427-2.959 11.65-7.259 15.025 1.39 2.111 2.82 3.513 4.812 3.513 2.174 0 3.05-1.703 3.197-3.038h2.83C42.149 36.61 41.272 44 33.36 44c-4.792 0-7.326-2.816-9.225-6.117zM22.33 34.31c-1.505-3-3.268-6.031-6.71-6.031-.659 0-1.316.11-1.919.39l-1.169-2.373c1.425-1.238 3.727-2.221 6.686-2.221 4.604 0 6.967 2.247 8.843 5.117 1.114-2.45 1.643-5.758 1.643-9.86 0-10.239-3.16-15.497-10.54-15.497-7.272 0-10.414 5.258-10.414 15.498 0 10.187 3.142 15.39 10.414 15.39 1.157 0 2.203-.129 3.166-.413z"/>
    </g>
</svg>
